<svg xmlns="http://www.w3.org/2000/svg" xmlns:xlink="http://www.w3.org/1999/xlink" xmlns:fi="http://pattern.flaticon.com/" x="0" y="0" width="1000" height="500" viewBox="0 0 1000 500"><rect x="0px" y="0px" width="100%" height="100%" opacity="1" fill="#ffffff"/><defs><g transform="matrix(0.12810713052749634 0 0 0.12810713052749634 333 191)" id="L1_0"><path d="M368.298,467.213l-46.662-11.325c-8.717-2.115-14.068-10.897-11.952-19.613l61.194-252.137  l49.772-34.424l28.455,53.41L387.911,455.26C385.796,463.977,377.015,469.328,368.298,467.213z" fill="#f6c358"/><path d="M423.506,202.315l-21.415,23.867l-8.092-31.029L438.383,12.28  c1.978-8.148,10.186-13.15,18.334-11.173l0,0c8.148,1.978,13.15,10.186,11.173,18.334L423.506,202.315z" fill="#fcd462"/><path d="M443.824,118.598l-29.507-7.161l24.107-99.328c1.954-8.053,10.067-12.997,18.121-11.043l0.344,0.083  c8.053,1.955,12.997,10.067,11.043,18.121L443.824,118.598z" fill="#27a2db"/><g><path d="M59.047,422.247 40.139,467.559 21.231,422.247 21.231,17.47 59.047,17.47z" fill="#fcd462"/><path d="M162.409,422.247 143.501,467.559 124.593,422.247 124.593,17.47 162.409,17.47z" fill="#fcd462"/><path d="M266.011,422.247 247.104,467.559 228.196,422.247 228.196,17.47 266.011,17.47z" fill="#fcd462"/></g><g><rect x="65px" y="0px" width="52px" height="22px" fill="#f6c358"/><rect x="51px" y="5px" width="79px" height="11px" fill="#f6c358"/><rect x="168px" y="0px" width="52px" height="22px" fill="#f6c358"/><rect x="154px" y="5px" width="79px" height="11px" fill="#f6c358"/></g><circle cx="267" cy="220" r="41" fill="#e56353"/><g><rect x="267px" y="178px" width="1px" height="82px" fill="#64798a"/><path d="M264.065,186.679v5.137h-1.353v-5.137H264.065z M264.065,196.958v5.143h-1.353v-5.143H264.065z    M264.065,207.243v5.143h-1.353v-5.143H264.065z M264.065,217.523v5.143h-1.353v-5.143H264.065z M264.065,227.808v5.143h-1.353   v-5.143H264.065z M264.065,238.093v5.137h-1.353v-5.137H264.065z M264.065,248.373v5.143h-1.353v-5.143H264.065z" fill="#64798a"/><path d="M273.198,186.679v5.137h-1.353v-5.137H273.198z M273.198,196.958v5.143h-1.353v-5.143H273.198z    M273.198,207.243v5.143h-1.353v-5.143H273.198z M273.198,217.523v5.143h-1.353v-5.143H273.198z M273.198,227.808v5.143h-1.353   v-5.143H273.198z M273.198,238.093v5.137h-1.353v-5.137H273.198z M273.198,248.373v5.143h-1.353v-5.143H273.198z" fill="#64798a"/></g><rect x="0px" y="420px" width="290px" height="47px" fill="#f6c358"/></g></defs><g fi:class="KUsePattern"><pattern id="pattern_L1_0" width="350" height="350" patternUnits="userSpaceOnUse"><use xlink:href="#L1_0" x="-350" y="-350"/><use xlink:href="#L1_0" x="0" y="-350"/><use xlink:href="#L1_0" x="350" y="-350"/><use xlink:href="#L1_0" x="-350" y="0"/><use xlink:href="#L1_0" x="0" y="0"/><use xlink:href="#L1_0" x="350" y="0"/><use xlink:href="#L1_0" x="-350" y="350"/><use xlink:href="#L1_0" x="0" y="350"/><use xlink:href="#L1_0" x="350" y="350"/></pattern><rect x="0" y="0" width="100%" height="100%" fill="url(#pattern_L1_0)"/></g></svg>