<?xml version="1.0" standalone="no"?>
<!DOCTYPE svg PUBLIC "-//W3C//DTD SVG 20010904//EN"
 "http://www.w3.org/TR/2001/REC-SVG-20010904/DTD/svg10.dtd">
<svg xmlns="http://www.w3.org/2000/svg" xmlns:xlink="http://www.w3.org/1999/xlink" version="1.1" id="Capa_1" x="0px" y="0px" width="512px" height="512px" viewBox="0 0 423.395 423.394" style="enable-background:new 0 0 423.395 423.394;" xml:space="preserve">
<g>
<path d="M635 2476 c-60 -28 -87 -56 -114 -116 -20 -44 -21 -61 -21 -860 0
-799 1 -816 21 -860 27 -60 54 -88 114 -116 l50 -24 815 0 815 0 50 24 c60 28
87 56 114 116 20 44 21 61 21 860 l0 815 -24 50 c-28 60 -56 87 -116 114 -43
20 -63 21 -557 21 l-513 0 0 -265 c0 -146 3 -265 6 -265 3 0 24 16 47 35 58
50 129 69 239 63 175 -10 276 -97 325 -281 15 -52 17 -115 18 -412 l0 -350
-107 -3 -107 -3 -3 348 -3 348 -30 60 c-36 72 -77 96 -158 96 -93 0 -158 -38
-200 -116 -21 -38 -22 -54 -25 -387 l-3 -348 -105 0 -104 0 0 740 0 740 -197
0 c-187 0 -201 -1 -248 -24z m1405 -1661 l0 -55 -540 0 -540 0 0 55 0 55 540
0 540 0 0 -55z"/>
</g>
</svg>
