<?xml version="1.0" standalone="no"?>
<!DOCTYPE svg PUBLIC "-//W3C//DTD SVG 20010904//EN"
 "http://www.w3.org/TR/2001/REC-SVG-20010904/DTD/svg10.dtd">
<svg version="1.0" xmlns="http://www.w3.org/2000/svg"
 width="1176.000000pt" height="1090.000000pt" viewBox="0 0 1176.000000 1090.000000"
 preserveAspectRatio="xMidYMid meet">
<metadata>
Created by potrace 1.15, written by Peter Selinger 2001-2017
</metadata>
<g transform="translate(0.000000,1090.000000) scale(0.100000,-0.100000)"
fill="#ffffff" stroke="none">
<path d="M6176 10373 c-6 -20 -86 -71 -86 -55 0 5 -16 13 -35 19 -32 10 -36 9
-41 -11 -5 -21 -9 -22 -50 -16 -24 4 -44 4 -44 0 0 -4 -16 -11 -36 -14 -19 -4
-38 -14 -41 -21 -3 -8 -9 -12 -15 -9 -5 3 -12 -3 -15 -14 -3 -13 -10 -19 -19
-15 -8 3 -23 -5 -34 -17 -12 -14 -34 -23 -61 -26 -44 -4 -94 -38 -82 -57 3 -5
-3 -6 -16 -2 -16 5 -28 1 -42 -16 -17 -20 -23 -21 -39 -11 -28 17 -51 5 -44
-23 5 -20 0 -24 -46 -36 -39 -10 -52 -18 -56 -36 -5 -17 -13 -23 -35 -23 -24
0 -29 -4 -29 -26 0 -25 -2 -25 -57 -23 -56 3 -58 2 -61 -24 -2 -15 1 -27 7
-27 6 0 11 -7 11 -15 0 -22 -21 -18 -50 8 -29 26 -70 24 -77 -4 -4 -12 -18
-21 -42 -25 -40 -7 -84 -31 -77 -42 2 -4 -7 -15 -20 -25 -13 -10 -24 -13 -24
-7 0 21 -20 9 -66 -40 -26 -27 -50 -50 -54 -50 -5 0 -31 -22 -59 -49 -27 -27
-53 -46 -56 -43 -3 3 -5 -2 -5 -11 0 -10 -4 -17 -8 -17 -5 0 -14 -18 -21 -40
-8 -28 -17 -40 -31 -40 -10 0 -39 -17 -64 -37 -44 -37 -58 -67 -34 -75 11 -4
-60 -37 -73 -34 -12 2 -39 -27 -39 -43 0 -9 -9 -23 -19 -31 -11 -7 -18 -17
-15 -22 3 -4 1 -8 -5 -8 -5 0 -11 -10 -13 -22 -2 -15 -11 -24 -25 -26 -13 -2
-23 -10 -23 -18 0 -8 -5 -14 -10 -14 -19 0 -60 -48 -60 -70 0 -23 -29 -55 -59
-65 -11 -3 -18 -12 -15 -20 4 -8 -5 -15 -25 -20 -26 -6 -31 -12 -33 -38 -1
-18 -2 -45 -3 -62 -5 -98 -4 -95 -30 -95 -18 0 -28 -7 -35 -25 -5 -14 -19 -35
-30 -47 -14 -15 -16 -24 -9 -29 7 -4 9 -18 5 -35 -9 -36 -24 -54 -53 -65 -19
-7 -23 -16 -23 -54 0 -25 -4 -45 -10 -45 -5 0 -10 -7 -10 -16 0 -19 -30 -74
-47 -89 -17 -14 -33 -61 -33 -98 0 -24 -3 -28 -10 -17 -8 12 -10 10 -10 -10
-1 -47 -12 -68 -38 -75 -15 -4 -21 -10 -14 -12 7 -3 12 -22 12 -44 0 -28 -4
-38 -12 -33 -7 4 -8 3 -4 -5 4 -7 5 -34 1 -61 -6 -41 -11 -50 -27 -50 -10 0
-16 -4 -13 -10 4 -6 -1 -7 -11 -3 -11 4 -13 8 -6 11 7 2 12 11 12 19 0 12 -3
13 -14 4 -11 -9 -15 -9 -19 1 -3 7 -6 -6 -6 -29 -1 -28 -7 -46 -18 -53 -13 -8
-15 -13 -5 -17 10 -4 10 -8 1 -19 -6 -7 -9 -31 -7 -53 3 -33 1 -38 -12 -31
-13 7 -19 0 -28 -33 -13 -46 -13 -115 0 -123 14 -9 9 -102 -8 -155 -16 -47
-15 -51 1 -69 10 -11 15 -28 12 -39 -3 -14 1 -22 15 -27 14 -4 19 -13 17 -32
-2 -15 0 -32 4 -39 4 -7 2 -41 -4 -77 -11 -57 -10 -66 4 -81 10 -9 17 -27 17
-41 0 -13 4 -24 8 -24 14 0 29 -75 21 -104 -15 -53 9 -416 31 -491 5 -16 12
-95 16 -175 3 -80 11 -174 16 -210 17 -106 21 -199 8 -215 -10 -11 -18 -11
-55 3 -40 14 -42 17 -26 29 10 7 24 26 31 44 12 27 11 32 -3 41 -9 5 -17 16
-17 25 0 14 2 14 15 -3 14 -18 14 -18 15 6 0 17 -6 26 -17 27 -28 2 -93 27
-93 35 0 5 -9 8 -21 8 -11 0 -18 4 -14 9 3 5 -9 16 -25 25 -27 13 -32 13 -37
0 -3 -7 -9 -14 -14 -14 -12 0 -49 -37 -49 -49 0 -17 -40 -20 -49 -4 -9 17 -12
16 -62 -29 -10 -10 -26 -18 -34 -18 -8 0 -26 -5 -40 -12 -20 -9 -25 -18 -23
-37 2 -21 9 -26 30 -26 16 -1 33 -6 40 -13 7 -7 19 -12 27 -12 37 0 161 -53
161 -69 0 -4 -11 -20 -25 -35 -36 -39 -36 -109 0 -132 24 -16 28 -16 64 0 29
13 46 15 72 8 19 -5 33 -14 32 -21 -2 -6 4 -11 12 -11 8 0 14 3 14 8 -4 24 3
33 21 27 13 -4 23 0 32 14 7 12 20 21 30 21 19 0 35 -39 20 -49 -5 -3 -12 -17
-13 -31 l-4 -25 -255 -2 c-140 -1 -334 -3 -430 -4 -200 -2 -224 2 -216 36 3
13 2 34 -3 47 -8 21 -10 19 -16 -19 l-7 -41 -82 2 c-44 1 -98 -1 -118 -5 -55
-9 -87 0 -103 30 l-13 26 -11 -27 c-11 -28 -40 -41 -94 -41 -15 0 -23 -3 -16
-7 15 -10 -37 -19 -64 -12 -20 6 -19 7 8 13 20 4 2 7 -50 8 -46 0 -74 -3 -67
-8 7 -4 25 -6 40 -4 l27 4 -25 -15 c-28 -17 -58 -20 -79 -7 -11 7 -10 13 4 35
10 14 13 26 7 26 -15 0 -42 -29 -42 -46 0 -22 -57 -17 -91 7 -24 17 -33 18
-44 9 -11 -9 -15 -9 -15 -1 0 6 -11 11 -25 11 -14 0 -25 5 -25 11 0 7 12 10
30 7 18 -3 30 0 30 6 0 7 -19 10 -48 9 l-47 -1 48 10 c39 9 47 15 47 34 0 27
17 34 80 34 47 0 50 2 66 37 10 20 20 31 22 25 9 -28 18 -8 18 38 0 38 -4 51
-17 55 -27 9 -46 -4 -53 -36 -7 -34 -61 -65 -83 -47 -7 6 -21 7 -30 2 -10 -4
-21 -8 -25 -8 -3 -1 -19 -12 -33 -24 -23 -20 -26 -30 -22 -58 3 -18 2 -36 -2
-38 -17 -11 -30 13 -34 59 -3 42 -4 39 -4 -16 0 -78 -6 -91 -39 -83 -22 6 -24
3 -25 -27 -1 -19 -3 -26 -6 -16 -5 21 -12 21 -39 3 -21 -15 -38 -10 -45 13 -4
11 -8 10 -22 -3 -9 -10 -17 -13 -17 -7 0 6 -4 11 -10 11 -5 0 -10 -7 -10 -15
0 -8 -7 -15 -15 -15 -17 0 -19 13 -6 58 6 20 6 32 0 32 -5 0 -9 -6 -9 -14 0
-8 -11 -23 -25 -34 -14 -11 -25 -25 -25 -32 0 -6 -5 -8 -10 -5 -6 4 -7 11 -4
17 4 6 -4 9 -17 8 -42 -4 -49 0 -60 27 l-10 26 -20 -21 c-11 -12 -26 -22 -34
-22 -8 0 -15 -7 -15 -15 0 -8 -8 -16 -17 -16 -10 -1 -39 -3 -66 -5 -26 -2 -47
1 -47 6 0 6 24 10 53 11 l52 1 -41 11 c-28 8 -39 16 -36 26 3 11 -1 12 -19 7
-13 -4 -39 -10 -57 -13 -28 -5 -33 -10 -29 -29 4 -20 0 -22 -44 -22 l-48 -1
20 20 c26 26 22 74 -6 74 -14 0 -21 -8 -23 -26 -3 -25 -42 -74 -42 -52 0 5
-25 22 -55 38 -30 15 -55 32 -55 39 0 6 -7 3 -15 -8 -9 -12 -22 -17 -35 -13
-11 3 -23 1 -26 -4 -3 -5 21 -10 53 -10 l58 -2 -63 -7 c-66 -7 -92 -19 -51
-22 13 -1 35 -3 49 -4 14 -1 33 -2 43 -3 32 -2 7 -21 -28 -21 -31 0 -42 -16
-23 -36 14 -14 84 -15 121 -3 l40 13 38 -42 c20 -24 40 -39 42 -35 3 4 175 7
384 6 1354 -7 1446 -5 1693 27 80 10 181 21 225 24 44 3 94 8 110 11 17 3 69
6 118 8 l87 4 0 -38 c0 -21 -5 -41 -10 -44 -7 -4 -7 -12 -1 -23 7 -12 25 -17
62 -19 52 -1 72 -14 62 -40 -3 -7 -1 -13 5 -13 6 0 12 6 15 13 2 6 3 -11 2
-39 -1 -27 -5 -55 -8 -61 -4 -7 3 -23 16 -37 13 -14 29 -40 34 -58 l11 -33 1
29 c1 23 4 26 15 17 10 -9 16 -9 21 -1 5 8 11 8 21 -1 7 -6 11 -16 7 -23 -4
-6 1 -5 10 2 14 12 17 11 23 -12 3 -13 13 -26 22 -28 20 -4 -68 -48 -95 -48
-10 0 -29 -9 -43 -20 -14 -11 -31 -20 -38 -20 -7 0 -39 -13 -70 -29 -63 -33
-320 -151 -328 -151 -10 0 -140 -84 -165 -107 -14 -12 -30 -23 -37 -23 -7 0
-12 -7 -12 -15 0 -8 -3 -15 -7 -15 -5 0 -33 -23 -63 -51 -30 -28 -66 -60 -80
-72 -14 -12 -32 -32 -40 -44 -89 -127 -202 -298 -207 -311 -4 -9 -30 -54 -60
-99 -29 -46 -53 -86 -53 -90 0 -4 -12 -19 -26 -34 -15 -15 -32 -37 -38 -47 -6
-11 -36 -53 -67 -94 -31 -41 -73 -107 -94 -146 -36 -70 -37 -70 -70 -65 -23 4
-46 -1 -73 -15 -21 -11 -65 -26 -98 -33 -32 -7 -70 -20 -84 -28 -49 -31 -65
-41 -94 -57 -16 -9 -39 -25 -50 -36 -12 -11 -34 -27 -50 -35 -35 -18 -36 -19
-106 -83 -30 -28 -69 -60 -87 -73 -18 -12 -38 -32 -44 -44 -7 -13 -20 -23 -30
-23 -10 0 -21 -5 -24 -10 -6 -10 -71 -45 -240 -128 -63 -31 -136 -56 -234 -82
-24 -6 -42 -5 -59 4 -25 13 -39 11 -197 -34 -71 -20 -109 -28 -116 -24 -4 2
-20 -3 -35 -11 -21 -11 -24 -15 -11 -15 33 0 7 -20 -48 -36 -30 -8 -57 -19
-60 -24 -3 -5 -31 -14 -63 -20 -31 -7 -73 -20 -92 -31 -19 -10 -60 -28 -90
-39 -30 -12 -73 -31 -95 -43 -87 -45 -155 -77 -165 -77 -5 0 -10 -4 -10 -10 0
-5 -8 -10 -17 -10 -18 0 -27 -16 -93 -164 -23 -52 -29 -77 -24 -102 3 -19 10
-37 15 -40 16 -10 9 -56 -17 -113 -14 -31 -37 -81 -51 -111 -14 -30 -34 -71
-44 -91 -18 -35 -19 -74 -19 -1033 l0 -996 5880 0 5881 0 -3 852 -3 853 -26
55 c-52 108 -69 153 -69 181 0 15 -4 30 -9 33 -5 3 -12 22 -15 41 -4 19 -10
35 -14 35 -4 0 -8 10 -9 23 -5 54 -16 87 -30 87 -13 0 -14 13 -8 79 7 78 6 81
-24 125 -22 31 -30 55 -29 77 2 17 -2 34 -9 36 -7 3 -9 -3 -6 -18 4 -16 2 -20
-8 -17 -9 3 -13 16 -11 37 4 38 -32 78 -63 73 -16 -3 -18 -1 -7 9 6 7 12 20
11 28 0 11 -2 12 -6 4 -5 -15 -43 -18 -43 -4 0 5 8 12 18 16 16 6 16 7 -2 21
-11 8 -29 14 -40 14 -10 0 -16 3 -13 7 11 10 -13 33 -34 33 -11 0 -28 9 -40
21 -12 12 -27 18 -39 14 -10 -3 -21 -1 -25 5 -3 5 -26 15 -51 21 -36 9 -42 14
-33 25 9 12 6 13 -19 8 -17 -4 -32 -1 -36 5 -4 6 0 11 8 11 9 0 16 4 16 9 0
10 -49 21 -95 21 -18 0 -39 7 -46 17 -12 15 -12 16 4 10 13 -5 17 -3 15 5 -3
7 -15 15 -28 18 -18 4 -27 16 -33 43 -12 48 -77 95 -111 79 -48 -22 -79 -32
-83 -28 -2 2 4 7 15 10 11 4 23 13 26 21 6 17 -13 32 -23 18 -3 -6 -24 -13
-46 -17 -22 -4 -46 -13 -54 -19 -11 -9 -12 -7 -9 8 2 13 10 19 22 17 10 -2 34
5 54 14 31 15 34 19 17 22 -11 3 -29 11 -40 18 -30 21 -45 17 -46 -13 l-1 -28
-7 30 c-5 23 -11 29 -26 26 -40 -7 -79 -3 -83 8 -2 6 -9 11 -16 11 -7 0 -33
14 -57 32 -48 36 -91 61 -129 77 -14 6 -32 16 -40 21 -21 14 -166 84 -220 106
-25 10 -47 21 -50 24 -7 9 -127 55 -195 76 -33 10 -65 24 -71 31 -6 7 -21 13
-33 13 -12 0 -34 6 -49 14 -15 8 -46 17 -67 21 -22 4 -51 11 -65 16 -14 5 -41
11 -60 13 -19 3 -51 8 -70 11 -19 4 -61 2 -92 -3 l-58 -9 -55 58 c-30 31 -55
62 -55 68 0 6 -4 11 -10 11 -5 0 -7 6 -4 13 5 13 -25 59 -83 127 -18 20 -33
42 -33 49 0 6 -9 16 -20 23 -11 7 -20 20 -20 30 0 9 -4 19 -9 22 -5 3 -25 30
-44 58 -20 29 -46 64 -59 78 -13 14 -29 36 -36 50 -6 14 -27 45 -46 70 -19 25
-35 53 -35 62 -1 20 -30 38 -60 38 -24 0 -27 10 -9 28 10 10 4 19 -25 43 -27
22 -37 38 -37 59 0 15 -7 30 -15 33 -8 4 -25 23 -39 45 -13 21 -38 45 -56 54
-17 8 -32 19 -33 24 -2 15 -50 64 -61 64 -7 0 -20 15 -31 33 -10 17 -29 40
-42 50 -13 10 -23 25 -23 33 0 7 -9 19 -21 26 -11 7 -29 28 -40 46 -12 17 -25
30 -30 26 -16 -10 -48 6 -43 21 7 18 -39 65 -63 65 -22 1 -64 30 -43 30 11 0
11 3 2 12 -8 8 -15 8 -27 -2 -13 -11 -15 -9 -15 14 0 15 -6 26 -14 26 -7 0
-21 11 -30 25 -21 32 -34 32 -47 -2 -8 -22 -12 -24 -19 -13 -11 18 0 30 51 57
21 11 34 24 31 32 -3 10 0 12 12 8 20 -8 20 2 0 31 -14 20 -12 27 9 23 5 -1 7
13 5 31 -3 31 -5 33 -35 30 -24 -3 -33 1 -33 11 0 17 24 29 44 21 9 -4 15 5
19 28 5 34 -6 58 -17 39 -5 -7 -14 -4 -28 9 -12 11 -23 19 -24 17 -1 -1 -5
-35 -8 -74 l-6 -73 27 -1 c27 -1 27 -1 -6 -10 -31 -9 -33 -13 -27 -42 3 -17
12 -34 19 -39 7 -4 4 -7 -10 -6 -12 1 -19 7 -16 15 3 7 0 13 -7 13 -8 0 -11
-11 -8 -30 4 -24 1 -30 -14 -30 -11 0 -18 -7 -18 -20 0 -11 -4 -20 -10 -20 -5
0 -10 -5 -10 -11 0 -21 -33 -37 -57 -28 -19 7 -23 5 -23 -11 0 -14 5 -18 17
-13 13 5 15 2 11 -14 -3 -11 -1 -28 4 -38 8 -13 7 -16 -3 -13 -8 2 -18 14 -24
26 -13 30 -25 28 -25 -4 0 -14 -7 -33 -16 -42 -20 -20 -1 -30 21 -12 10 8 15
9 15 2 0 -13 31 -4 42 12 4 6 8 1 8 -11 0 -13 -6 -23 -14 -23 -8 0 -16 -15
-20 -37 -3 -21 -8 -47 -10 -58 -2 -11 -5 -22 -5 -24 -1 -3 -7 4 -15 14 -13 18
-14 18 -27 -2 -7 -12 -19 -19 -26 -16 -9 4 -16 -3 -20 -16 -3 -11 -13 -21 -23
-21 -12 0 -17 -8 -17 -27 -1 -61 -8 -113 -15 -113 -4 0 -8 6 -8 14 0 21 -19
30 -35 16 -8 -6 -19 -9 -25 -5 -5 3 -11 1 -11 -4 -1 -6 -3 -15 -4 -21 -1 -5
-3 -14 -4 -20 -2 -22 -20 -8 -26 20 -7 34 -19 38 -34 13 -10 -17 -10 -17 -11
1 0 32 23 86 37 86 7 0 13 5 13 11 0 6 7 9 15 5 10 -3 15 1 15 12 0 10 6 27
14 38 17 22 11 58 -16 93 -10 13 -18 30 -18 37 0 8 -4 14 -10 14 -5 0 -14 9
-20 21 -9 16 -8 28 4 53 21 45 31 112 17 120 -6 4 -11 1 -11 -8 0 -8 -7 -22
-16 -31 -9 -9 -14 -24 -11 -35 3 -13 -1 -24 -14 -30 -13 -8 -19 -7 -19 0 0 6
-5 8 -10 5 -7 -4 -8 -11 -1 -18 14 -18 24 -84 13 -91 -5 -3 -12 13 -16 35 l-7
41 -20 -23 c-15 -17 -22 -20 -31 -11 -9 9 -9 12 0 12 7 0 12 5 12 10 0 6 -11
8 -25 4 -29 -7 -31 -2 -9 20 8 9 11 16 5 16 -6 0 -11 11 -11 25 0 16 -6 25
-15 25 -10 0 -15 -10 -15 -29 0 -29 -11 -46 -23 -35 -3 4 -1 14 5 24 9 14 7
25 -11 53 -17 28 -19 36 -7 40 8 3 17 30 22 69 4 35 10 53 12 41 2 -13 8 -23
14 -23 7 0 9 34 6 100 -3 86 -7 102 -25 119 -12 11 -24 35 -28 53 -4 18 -20
50 -36 70 -17 22 -29 49 -29 67 0 16 -4 33 -10 36 -33 20 14 70 74 79 33 5 56
17 82 42 20 19 39 34 42 34 3 0 10 6 16 14 6 8 43 28 82 44 39 16 91 42 115
57 41 27 149 127 149 140 0 3 9 16 21 28 51 55 159 310 159 376 0 13 9 44 20
67 22 45 43 54 122 54 36 0 38 -1 24 -16 -21 -20 -21 -21 10 -57 19 -23 24
-38 20 -58 -3 -17 0 -30 7 -33 8 -3 7 -8 -5 -16 -10 -6 -18 -22 -18 -34 0 -13
-6 -26 -13 -29 -9 -3 -12 -20 -10 -53 5 -59 11 -67 19 -26 4 18 10 32 15 32 4
0 10 8 12 18 3 9 2 -5 -1 -32 -4 -39 -2 -50 12 -58 9 -5 14 -14 11 -19 -4 -5
-11 -7 -16 -4 -5 4 -12 -1 -15 -9 -8 -21 -24 -10 -24 15 0 10 -6 19 -13 19
-14 0 -11 -89 4 -105 13 -13 10 -47 -6 -68 -11 -15 -11 -24 -2 -44 9 -21 8
-27 -6 -34 -11 -7 -17 -23 -17 -48 0 -44 -21 -101 -44 -121 -21 -17 -22 -64
-1 -57 23 9 25 -6 4 -31 -10 -13 -24 -20 -30 -16 -15 9 -29 -14 -29 -49 0 -15
-7 -30 -15 -33 -8 -4 -13 -10 -10 -15 3 -4 -1 -25 -10 -45 -14 -33 -14 -39 0
-54 18 -20 19 -37 3 -43 -14 -5 28 -57 45 -57 15 0 57 49 57 67 0 9 7 24 15
33 25 28 65 110 65 135 0 13 5 27 10 30 16 10 12 75 -4 75 -8 0 -16 7 -20 15
-7 18 5 20 22 3 9 -9 12 -6 12 14 0 14 3 40 6 57 4 18 3 31 -2 30 -5 0 -19 2
-31 6 -18 6 -22 13 -18 39 2 17 4 34 4 39 1 4 6 7 12 7 19 0 37 26 44 64 6 29
4 36 -9 36 -19 0 -22 40 -4 58 9 9 9 12 0 12 -24 0 -11 28 16 33 18 4 31 1 40
-11 10 -14 12 -11 12 18 0 18 -7 41 -16 51 -15 17 -11 45 5 34 5 -2 0 26 -10
63 -10 37 -19 79 -19 94 0 15 -5 38 -11 51 -8 18 -8 30 0 45 8 15 8 22 -2 25
-9 4 -9 6 1 6 6 1 12 10 12 21 0 11 7 23 15 26 8 4 15 17 15 31 0 21 4 24 21
20 17 -5 20 -2 15 16 -7 29 36 53 51 28 9 -14 13 -14 32 3 11 11 21 24 21 31
0 14 32 45 48 45 6 0 13 -8 15 -17 4 -17 5 -17 6 0 0 9 5 17 10 17 22 0 21
-44 -2 -108 -31 -85 -46 -189 -26 -176 8 5 25 7 37 5 20 -2 23 1 17 19 -9 29
29 71 59 65 12 -2 41 -6 66 -10 43 -5 46 -4 70 32 29 45 41 54 58 48 7 -3 12
4 12 17 0 12 -3 18 -7 15 -3 -4 -18 6 -34 22 -15 16 -44 34 -64 41 -42 14 -60
47 -45 86 6 14 14 22 20 19 5 -3 10 1 10 9 0 9 9 33 20 53 11 21 20 48 20 60
0 13 4 23 9 23 5 0 8 19 8 43 0 46 11 118 19 126 3 3 9 -1 14 -9 8 -13 10 -13
10 0 0 9 -6 25 -14 36 -8 11 -17 45 -21 76 -4 32 -14 63 -21 69 -9 7 -11 16
-5 23 4 6 11 27 15 47 6 32 11 38 42 43 19 4 32 11 29 16 -3 5 -1 11 4 15 6 3
8 12 4 20 -4 11 -1 13 11 9 22 -8 20 12 -1 25 -17 10 -17 10 0 11 20 0 37 37
37 83 0 18 1 48 2 67 3 33 1 35 -24 33 -16 -1 -28 2 -28 8 0 5 9 9 21 9 18 0
19 4 13 38 -4 20 -7 50 -8 67 -1 36 -33 48 -38 15 -3 -20 -7 -19 -45 20 -45
44 -53 60 -28 60 21 0 19 13 -5 35 -11 10 -20 24 -20 31 0 8 -11 21 -25 30
-14 9 -25 21 -25 26 0 24 -37 53 -69 55 -18 1 -36 5 -40 10 -3 5 -14 12 -23
16 -10 3 -18 15 -18 25 0 15 -6 18 -30 14 -27 -4 -30 -2 -31 24 0 29 -17 80
-18 57 -1 -8 -10 -7 -31 4 l-31 15 3 123 c2 91 -1 126 -11 139 -9 10 -11 28
-7 50 4 19 1 56 -5 83 -6 26 -10 99 -9 161 l1 112 -25 0 c-24 0 -26 3 -26 45
0 38 -4 47 -22 54 -23 8 -23 9 10 39 30 28 43 62 23 62 -14 0 -81 70 -81 85 0
8 8 15 18 18 16 4 16 4 0 11 -11 5 -23 2 -33 -7 -8 -9 -24 -13 -36 -10 l-22 6
23 17 c29 22 20 36 -25 44 -21 4 -35 13 -35 21 0 10 -11 15 -35 15 l-35 0 0
50 c0 38 -4 50 -15 50 -8 0 -15 9 -15 20 0 17 -7 20 -45 20 -43 0 -46 2 -52
30 -3 17 -12 30 -19 30 -10 0 -14 14 -14 50 0 38 -4 50 -15 50 -8 0 -15 7 -15
15 0 18 -16 20 -27 3 -13 -20 -33 -81 -33 -100 0 -11 -8 -18 -20 -18 -15 0
-20 7 -20 25 0 36 -30 33 -31 -2 -2 -25 -2 -26 -6 -5 -3 15 -15 27 -34 34 -28
10 -33 18 -30 46 1 8 -5 20 -15 26 -9 7 -15 20 -12 28 4 8 2 21 -3 29 -6 10
-9 4 -9 -19 0 -32 0 -32 -25 -16 -14 9 -25 22 -25 30 0 7 -12 17 -27 20 -16 4
-39 17 -53 29 -14 12 -35 28 -47 34 -13 6 -23 18 -23 26 0 7 -4 15 -8 17 -5 2
-15 16 -23 32 -15 32 -44 54 -55 43 -4 -3 1 -18 10 -31 35 -55 14 -61 -37 -11
-41 39 -54 43 -73 18 -12 -17 -13 -17 -14 -1 0 13 -7 16 -34 11 -28 -4 -37 -1
-48 16 -8 13 -23 21 -41 21 -16 0 -26 -4 -22 -10 3 -5 15 -10 26 -10 12 0 19
-7 19 -20 0 -11 4 -20 9 -20 11 0 52 -63 55 -84 1 -7 9 -25 19 -39 l17 -27
-32 6 c-31 6 -32 5 -14 -8 20 -16 15 -38 -9 -38 -20 0 -24 -23 -6 -38 14 -11
13 -11 -7 -2 -28 14 -42 6 -42 -26 0 -27 -12 -31 -30 -9 -7 8 -18 15 -25 15
-7 0 -12 7 -11 16 0 9 -16 25 -39 37 -70 39 -71 40 -49 48 18 7 18 8 -2 8 -12
1 -24 8 -27 15 -4 10 -1 13 9 9 19 -7 18 11 -1 27 -17 14 -20 40 -4 40 5 0 7
5 3 12 -5 8 -11 6 -19 -6 -7 -9 -23 -19 -35 -21 -12 -2 -30 -7 -40 -10 -13 -4
-19 1 -23 22 -7 37 8 51 32 29 17 -16 20 -16 35 -1 20 21 20 39 1 55 -9 7 -14
19 -11 27 7 18 -24 30 -34 13 -10 -16 -40 -6 -40 14 0 8 -5 27 -10 41 -8 22
-13 25 -25 15 -15 -12 -35 -6 -35 11 0 5 15 9 34 9 19 0 38 4 41 10 4 6 -11 9
-38 7 -74 -4 -144 53 -74 61 15 2 27 -1 27 -7 0 -6 21 -11 50 -11 45 0 50 2
50 23 0 20 -4 22 -45 19 -42 -4 -63 10 -32 21 6 2 8 8 4 13 -4 5 -11 3 -15 -3
-18 -28 -122 -46 -122 -20 0 16 -56 48 -95 54 -16 3 -36 10 -44 16 -11 10 -9
13 10 18 21 5 19 7 -15 14 -27 5 -40 4 -46 -5 -5 -8 -17 -10 -34 -6 -15 4 -24
11 -21 16 3 6 -6 10 -20 10 -18 0 -29 6 -32 19 -3 11 -16 22 -29 25 -32 8 -31
26 1 26 16 0 25 -6 25 -16 0 -11 8 -14 27 -12 36 4 41 26 6 34 -24 6 -20 9 36
20 34 7 99 13 143 13 74 0 112 11 95 27 -3 4 -71 10 -149 15 -79 4 -153 11
-165 14 -15 5 -23 2 -27 -12z m564 -698 c22 -14 40 -29 40 -33 0 -4 15 -14 33
-22 17 -7 41 -22 51 -32 20 -18 20 -18 0 -18 -12 0 -24 3 -27 7 -8 8 -57 14
-57 7 0 -3 14 -10 30 -15 31 -11 38 -23 20 -34 -5 -3 -10 -2 -10 3 0 16 -159
43 -182 31 -19 -10 -24 1 -8 17 7 7 0 18 -20 33 -32 23 -32 41 0 41 10 0 23 6
27 14 4 8 19 16 33 19 14 2 26 5 28 6 1 0 20 -10 42 -24z m42 -166 c24 -21 49
-39 55 -39 7 0 22 -19 33 -41 31 -66 10 -77 -57 -31 -56 39 -76 51 -93 58 -8
4 -28 11 -43 18 -22 8 -27 16 -22 33 3 12 0 23 -8 26 -24 10 11 23 52 19 30
-3 52 -14 83 -43z m-282 -269 c0 -3 22 -3 50 -2 46 4 50 2 50 -18 0 -17 -4
-21 -17 -15 -10 3 -20 7 -23 8 -3 1 -6 -2 -8 -8 -1 -5 19 -13 45 -16 42 -5 38
-6 -29 -7 -47 -1 -78 -6 -78 -12 0 -7 41 -9 123 -6 69 3 129 1 137 -4 12 -8
11 -10 -5 -11 -11 -1 -27 -1 -37 0 -9 1 -33 -7 -54 -19 -49 -26 -139 -29 -130
-4 5 13 2 14 -11 9 -60 -26 -120 -11 -108 26 4 12 1 19 -7 20 -7 0 0 5 15 11
26 9 27 11 10 24 -12 9 -13 13 -5 14 7 0 11 3 8 8 -2 4 13 7 35 7 21 0 39 -2
39 -5z m1162 -240 c4 0 8 7 8 15 0 8 7 15 15 15 9 0 15 -9 15 -24 0 -14 5 -28
10 -31 8 -5 7 -12 -1 -22 -10 -12 -10 -16 2 -24 8 -5 20 -9 27 -9 6 0 12 -8
12 -18 0 -11 9 -27 21 -38 14 -12 19 -27 17 -46 -4 -23 -2 -25 14 -17 22 12
23 3 3 -17 -8 -9 -15 -19 -15 -24 0 -5 7 -15 15 -24 18 -18 19 -33 3 -39 -9
-4 -7 -6 3 -6 21 -1 54 -92 69 -191 6 -41 15 -100 20 -130 5 -30 18 -98 30
-150 21 -99 37 -256 21 -210 -8 21 -9 22 -10 5 -1 -21 -35 -58 -45 -48 -3 3
-3 10 0 15 3 5 7 32 9 60 2 47 1 50 -12 32 -9 -12 -13 -33 -10 -56 3 -20 2
-38 -3 -40 -4 -2 -10 -25 -14 -53 -4 -37 -3 -44 4 -27 5 13 14 20 20 17 14 -8
13 -35 -1 -35 -11 0 -11 -7 7 -123 4 -31 3 -56 -5 -71 -10 -17 -9 -37 3 -96 9
-41 16 -115 16 -163 0 -69 3 -89 15 -93 9 -4 14 -11 13 -18 -4 -22 15 -101 28
-121 8 -11 14 -35 14 -55 0 -19 5 -53 11 -75 6 -22 16 -67 23 -100 7 -33 17
-69 23 -80 6 -11 14 -38 17 -61 6 -35 4 -45 -21 -72 -35 -41 -63 -42 -63 -4 0
40 -34 146 -63 195 -31 52 -110 134 -140 143 -12 4 -28 16 -36 26 -14 21 -125
78 -151 78 -8 0 -51 11 -95 25 -44 14 -90 25 -101 25 -12 0 -27 6 -33 14 -9
11 -56 23 -108 28 -15 2 -18 18 -3 18 6 0 10 5 10 10 0 6 -7 10 -15 10 -8 0
-15 -4 -15 -10 0 -5 -7 -10 -16 -10 -10 0 -14 6 -10 15 4 11 -5 16 -34 21 -24
4 -40 12 -40 20 0 8 -8 14 -17 14 -14 0 -15 2 -5 9 16 10 -30 21 -89 21 -22 0
-39 4 -39 9 0 5 -11 11 -25 13 -14 3 -25 2 -25 -1 0 -8 -93 -7 -105 1 -28 17
-297 26 -362 12 -19 -3 -35 -14 -38 -25 -5 -13 -16 -19 -39 -19 -17 0 -37 -5
-43 -11 -8 -8 -15 -5 -26 11 -15 21 -35 12 -22 -10 3 -5 -3 -10 -15 -10 -12 0
-18 5 -15 10 4 6 -1 24 -9 42 -9 17 -16 37 -16 44 0 15 -40 45 -51 38 -4 -2
-10 0 -14 6 -9 15 -45 12 -51 -4 -5 -12 -18 -9 -67 17 -70 36 -82 46 -82 66 0
8 -6 16 -12 19 -7 2 -13 -4 -13 -13 0 -23 -24 -13 -28 12 -2 12 -12 29 -23 39
-10 9 -19 22 -19 28 0 15 -36 46 -44 39 -3 -4 -6 0 -6 9 0 8 18 22 42 31 38
16 42 15 54 -1 12 -16 14 -16 30 0 14 14 15 20 6 30 -7 7 -12 34 -12 60 0 26
-4 48 -10 48 -5 0 -10 5 -10 10 0 6 20 10 45 10 42 0 61 -13 33 -22 -7 -3 -9
-12 -4 -24 7 -18 8 -18 20 -1 7 9 22 17 33 17 16 0 23 10 32 46 8 30 8 50 2
58 -11 14 6 96 20 96 5 0 9 25 9 55 0 33 4 55 11 55 7 0 10 21 8 58 -3 49 0
61 19 80 12 12 22 27 22 32 0 6 11 15 25 20 17 6 23 14 19 25 -5 11 0 18 15
22 11 3 21 13 21 23 0 10 13 23 30 30 17 7 30 16 30 20 0 11 78 48 118 56 17
4 37 13 43 20 6 8 26 14 43 14 22 0 27 3 17 9 -11 7 -9 10 8 13 12 1 21 7 21
12 -3 15 24 26 70 27 l45 2 -45 6 c-33 4 -40 8 -27 13 10 5 16 12 12 18 -3 5
19 23 50 41 30 17 55 37 55 45 0 11 5 11 27 1 21 -9 27 -9 31 1 2 6 12 12 23
12 13 0 19 7 19 23 0 20 4 23 28 19 18 -2 33 2 41 12 8 9 20 16 28 16 8 0 11
5 8 10 -3 6 4 10 17 10 13 0 37 9 53 20 18 12 47 20 72 20 23 0 45 5 48 10 3
6 15 10 26 10 26 0 24 17 -3 24 -13 3 12 3 55 1 64 -4 84 -1 115 15 20 11 33
20 28 20 -5 0 -7 2 -4 5 11 11 146 38 218 44 74 6 75 6 89 -21 8 -16 18 -28
23 -28z m613 -880 c3 -11 11 -20 16 -20 5 0 9 -33 9 -73 0 -70 1 -74 30 -95
17 -13 30 -27 30 -33 0 -6 7 -17 15 -25 20 -21 20 -74 -1 -74 -18 0 -44 -23
-44 -39 0 -6 -5 -11 -11 -11 -7 0 -9 10 -5 26 4 14 2 32 -4 39 -19 23 -52 166
-51 216 2 39 -1 47 -19 52 -14 3 -20 13 -20 31 0 21 5 26 24 26 16 0 27 -7 31
-20z m-735 -969 c0 -5 18 -11 40 -15 22 -3 40 -11 40 -17 0 -6 9 -8 19 -4 11
3 22 1 26 -5 4 -6 15 -8 26 -5 12 4 21 1 25 -9 3 -9 12 -16 19 -16 18 0 106
-81 118 -110 5 -14 9 -38 8 -54 -2 -20 1 -26 9 -21 9 5 10 2 6 -12 -5 -14 1
-23 19 -33 14 -7 26 -18 27 -24 18 -125 18 -146 -1 -146 -9 0 -37 -20 -64 -45
-26 -25 -50 -44 -53 -42 -3 1 -28 -18 -56 -43 -28 -25 -55 -50 -62 -55 -25
-23 -146 -115 -150 -115 -2 0 -18 -12 -34 -27 -63 -60 -114 -85 -175 -85 -23
-1 -26 -4 -21 -22 4 -12 7 -25 7 -31 0 -31 -4 -45 -14 -45 -6 0 -22 -9 -36
-20 -19 -15 -41 -20 -84 -20 -33 0 -59 4 -59 10 0 6 -22 10 -49 10 -28 0 -52
4 -55 9 -3 5 -28 9 -56 8 -28 0 -53 3 -57 6 -10 11 -33 8 -33 -3 0 -5 7 -10
15 -10 21 0 19 -12 -7 -35 -22 -19 -47 -21 -58 -6 -3 4 -23 18 -45 31 -61 36
-125 90 -125 105 0 8 -7 18 -16 23 -11 6 -14 20 -12 47 3 37 4 38 21 21 16
-16 22 -17 45 -7 23 11 29 10 42 -6 8 -11 24 -22 35 -27 16 -6 17 -9 5 -17
-11 -7 -8 -9 15 -7 36 3 138 -12 131 -19 -12 -13 15 -40 40 -40 14 0 30 -7 35
-14 6 -10 13 -11 26 -4 10 6 36 11 58 10 34 0 40 -3 43 -23 3 -22 27 -27 27
-5 0 14 48 63 63 63 17 0 15 11 -5 26 -15 11 -16 16 -5 31 7 10 15 26 18 35 3
9 19 22 36 29 20 8 26 15 19 22 -18 18 -12 27 32 47 42 19 117 82 117 99 0 5
7 14 15 21 8 7 13 16 10 20 -10 16 94 51 147 49 30 -1 69 6 91 15 31 14 37 21
37 46 0 20 5 30 15 30 8 0 14 3 14 8 -1 4 0 10 1 15 1 4 3 13 4 20 0 7 21 14
50 17 47 5 49 6 33 22 -21 21 -22 47 -2 54 17 7 20 35 6 50 -5 5 -12 18 -15
29 -3 11 -3 2 0 -19 5 -36 4 -38 -11 -22 -9 9 -23 16 -32 16 -9 0 -13 6 -9 15
8 21 -31 40 -49 25 -11 -9 -27 -9 -67 0 -29 6 -104 13 -166 15 -83 3 -120 8
-138 20 -14 9 -29 13 -34 10 -12 -7 -58 15 -64 31 -6 16 44 54 72 54 11 0 25
7 33 16 22 27 66 44 114 44 25 0 45 5 45 10 0 6 5 10 10 10 6 0 10 -4 10 -9z
m-3407 -91 c14 -16 33 -30 41 -30 12 0 16 -10 15 -37 0 -39 -16 -128 -18 -105
0 7 -5 11 -10 8 -12 -8 -54 8 -72 27 -8 8 -29 22 -47 31 -38 19 -40 36 -10 85
37 62 63 67 101 21z m2170 -131 c21 -6 37 -16 37 -24 0 -8 4 -15 9 -15 8 0 41
-191 41 -237 0 -33 -26 -28 -33 6 -4 16 -12 34 -19 41 -7 6 -28 24 -47 40 -19
17 -40 30 -47 30 -6 0 -17 6 -23 14 -6 8 -36 17 -66 21 -30 3 -57 11 -60 16
-4 5 -2 9 3 9 4 0 19 19 32 41 12 23 32 51 42 61 21 21 42 20 131 -3z m-63
-227 l54 -28 45 -125 c25 -68 49 -125 53 -127 4 -2 8 -9 8 -16 0 -14 33 -81
51 -103 17 -20 35 -50 55 -93 9 -19 29 -54 45 -78 16 -24 29 -47 29 -53 0 -5
4 -9 9 -9 5 0 7 9 4 19 -3 11 0 28 6 38 9 15 11 13 12 -17 1 -19 1 -43 0 -52
-1 -10 9 -33 23 -51 32 -42 66 -138 66 -188 0 -38 -22 -88 -52 -121 -24 -24
-63 -23 -82 3 -18 27 -113 71 -137 64 -11 -4 -21 1 -27 11 -14 25 -82 11 -82
-16 0 -11 -6 -20 -14 -20 -7 0 -19 -7 -26 -15 -7 -8 -23 -15 -37 -15 -19 0
-24 5 -22 23 3 34 -12 77 -27 77 -8 0 -23 20 -34 44 -12 23 -34 56 -50 72 -28
30 -61 108 -82 194 -6 25 -14 50 -18 55 -8 11 -1 67 25 205 20 106 28 180 27
247 -1 46 2 54 26 71 56 40 81 40 152 4z m1646 -375 c-8 -42 -18 -83 -24 -90
-5 -6 -12 -24 -15 -38 -10 -42 -94 -174 -140 -219 -23 -24 -69 -60 -101 -82
-70 -46 -167 -85 -152 -60 3 5 -4 15 -15 22 -10 8 -19 18 -19 23 0 11 -18 33
-57 70 -28 26 -30 32 -19 48 15 21 147 129 159 129 4 0 20 11 35 25 15 14 32
25 38 25 7 0 14 6 17 14 3 7 30 27 61 45 31 17 73 46 94 65 20 18 46 36 58 40
11 3 36 20 54 36 18 16 35 29 36 27 2 -1 -3 -38 -10 -80z m-1357 -751 c29 -26
104 -66 191 -101 18 -7 47 -24 77 -46 12 -8 34 -38 48 -67 14 -29 30 -52 36
-52 16 0 10 -30 -7 -37 -9 -3 -25 -1 -35 5 -16 10 -18 7 -24 -36 -12 -98 -16
-110 -38 -125 -13 -8 -28 -11 -37 -6 -8 4 -33 15 -55 24 -22 9 -48 20 -57 25
-10 6 -28 10 -42 10 -13 0 -29 7 -36 15 -7 9 -21 13 -31 10 -10 -3 -32 1 -49
10 -30 15 -31 18 -24 63 8 59 11 62 35 33 11 -13 25 -21 33 -18 23 9 47 52 40
71 -8 21 -24 21 -25 -1 0 -14 -2 -13 -9 4 -6 14 -21 24 -44 29 -26 4 -36 11
-36 25 0 24 -20 35 -31 18 -7 -11 -9 -10 -9 4 0 19 -20 24 -21 5 0 -7 -4 -3
-10 10 -12 32 -2 68 27 91 13 10 24 23 24 28 0 11 39 30 64 32 11 0 31 -10 45
-23z m-24 -606 c111 -40 164 -50 198 -35 24 10 46 -1 57 -30 9 -24 33 -34 43
-17 2 4 2 1 0 -6 -1 -7 3 -27 10 -45 8 -21 11 -70 9 -146 -3 -101 -6 -114 -23
-118 -22 -6 -23 -8 -8 -32 7 -11 9 -30 5 -47 -7 -26 -9 -27 -20 -11 -19 25
-40 22 -33 -5 7 -25 -20 -128 -33 -128 -4 0 -10 7 -14 15 -3 9 0 15 10 15 10
0 14 8 12 23 -2 17 -8 21 -27 19 -27 -4 -70 -32 -71 -46 0 -4 14 -28 31 -53
16 -25 28 -52 25 -60 -8 -21 -30 -11 -34 15 -2 12 -7 22 -12 22 -15 0 -23 -34
-21 -82 2 -26 -4 -69 -13 -95 -9 -26 -16 -52 -17 -58 0 -5 -9 -13 -20 -17 -14
-5 -19 -17 -20 -45 0 -33 -1 -35 -9 -15 -6 14 -18 22 -34 22 -14 0 -28 5 -31
11 -4 5 -17 9 -28 8 -28 -3 -77 11 -77 21 0 4 -15 13 -32 20 -18 7 -46 25 -61
39 -24 22 -31 24 -47 13 -27 -16 -120 -16 -120 1 1 29 28 49 67 47 57 -3 60
-1 34 20 -19 17 -21 23 -11 35 7 8 16 13 20 10 4 -3 21 2 36 10 31 16 80 22
55 6 -9 -6 -10 -10 -2 -16 17 -10 60 21 71 51 7 16 20 27 41 31 19 3 34 14 36
25 3 10 12 18 19 18 10 0 13 7 8 26 -5 18 -1 30 15 45 11 11 21 25 21 32 0 8
-3 8 -9 -1 -7 -12 -12 -12 -30 0 -34 21 -37 54 -9 112 l26 52 -25 22 c-28 25
-36 26 -62 11 -11 -8 -29 -9 -47 -4 -16 5 -36 7 -44 6 -13 -2 -13 -1 0 8 16
11 12 13 -40 25 -27 6 -99 55 -100 69 0 4 6 7 13 7 7 0 23 7 36 16 18 13 20
18 10 25 -12 8 -12 10 0 18 15 10 7 31 -12 31 -7 0 -24 6 -39 14 -15 8 -40 17
-56 21 -17 3 -33 13 -37 22 -11 29 22 48 88 50 59 3 198 20 204 26 7 7 83 -6
128 -23z m1045 -682 c-1 -24 -7 -72 -16 -108 -19 -87 -39 -212 -54 -340 -14
-125 -27 -201 -44 -255 -8 -22 -18 -56 -24 -75 -33 -114 -96 -306 -102 -315
-5 -5 -21 -35 -37 -65 -38 -72 -126 -212 -153 -241 -34 -37 -197 -215 -220
-241 -89 -98 -190 -306 -190 -390 0 -27 45 -98 63 -99 7 0 22 -12 33 -27 20
-25 21 -32 10 -72 -6 -25 -15 -51 -19 -58 -5 -7 -6 -21 -2 -32 13 -40 -44 -90
-103 -90 -14 0 -51 -6 -81 -14 -151 -39 -320 -44 -576 -16 -203 22 -470 71
-489 90 -6 6 -21 10 -34 10 -13 0 -40 7 -60 16 -115 52 -182 85 -187 94 -3 6
-15 10 -27 10 -11 0 -22 8 -25 20 -3 11 -13 20 -22 20 -9 0 -22 13 -28 30 -10
26 -9 30 7 30 10 0 20 -6 23 -14 3 -8 15 -12 30 -9 14 3 36 -2 49 -11 14 -9
32 -14 41 -11 8 4 18 2 22 -4 3 -6 0 -11 -7 -11 -16 0 29 -24 59 -32 14 -4 24
0 28 9 5 14 8 13 26 -3 19 -17 19 -19 2 -25 -16 -7 -16 -8 3 -8 14 -1 26 10
37 33 9 19 31 46 50 61 l33 27 -13 51 c-19 76 -17 130 7 152 26 24 133 34 155
15 8 -7 40 -14 70 -15 31 -1 61 -7 67 -13 7 -7 23 -12 36 -12 15 0 26 -7 29
-19 3 -14 17 -20 51 -24 25 -3 48 -10 50 -16 2 -6 9 -8 15 -4 6 4 56 10 111
14 136 10 194 27 214 65 8 16 22 38 32 49 9 11 20 28 23 38 4 9 12 17 19 17
12 0 62 74 63 92 0 10 25 33 25 24 0 -26 43 52 56 101 8 32 19 62 25 68 5 5 9
16 9 26 0 9 9 28 21 43 17 21 19 29 9 41 -10 12 -10 15 0 15 8 0 11 3 7 6 -3
4 0 19 8 34 8 15 11 30 8 34 -4 3 6 6 21 6 19 0 29 6 33 20 3 11 9 20 14 20
14 0 10 27 -4 33 -9 3 -12 16 -10 34 4 23 0 30 -24 41 -56 26 -73 37 -73 49 0
7 9 13 20 13 11 0 20 6 20 13 0 18 -53 73 -78 81 -30 10 -28 29 8 68 17 18 30
36 30 40 0 4 7 5 15 2 8 -4 15 -1 15 6 0 9 16 10 61 5 46 -5 60 -4 54 4 -3 7
-15 9 -25 6 -22 -7 -38 13 -17 21 9 3 18 16 21 28 3 13 15 35 26 49 17 22 25
25 40 17 32 -17 40 -12 34 20 -5 23 -2 31 12 36 41 13 62 27 58 39 -3 6 2 18
11 25 8 7 15 18 15 26 0 7 19 33 43 56 23 24 58 63 77 86 19 23 40 42 47 42 7
0 28 24 47 53 42 63 61 87 69 87 4 0 4 -7 1 -15 -4 -8 -2 -15 4 -15 6 0 15 14
21 30 5 17 17 30 27 30 10 0 14 5 10 15 -4 10 7 29 29 51 19 19 35 43 35 54 0
25 17 35 35 20 11 -9 15 -9 15 -1 0 6 15 28 33 47 17 20 34 47 37 61 3 15 11
28 19 31 10 3 13 -2 9 -22 -3 -17 -1 -26 7 -26 16 0 25 23 25 61 0 16 5 29 10
29 6 0 10 -19 10 -42z m-1452 -3393 c73 -8 137 -17 142 -20 6 -4 5 -13 -2 -25
-7 -10 -16 -16 -21 -13 -4 3 -11 -4 -14 -16 -3 -12 -9 -21 -14 -21 -4 0 -18
-17 -30 -39 -35 -63 -85 -71 -238 -38 -47 10 -65 18 -67 31 -1 10 -9 25 -17
34 -18 20 -26 97 -12 111 13 13 62 19 105 15 19 -3 95 -11 168 -19z m1271
-141 c-28 -12 -38 -22 -41 -45 -4 -28 -3 -29 46 -35 32 -5 44 -9 32 -13 -9 -4
-18 -11 -18 -16 0 -6 -4 -15 -9 -21 -17 -21 26 -47 66 -40 29 6 35 4 35 -10 0
-14 -8 -16 -55 -11 -52 5 -85 23 -85 46 0 15 -17 14 -23 -1 -8 -21 -54 42 -49
67 2 13 -1 26 -7 29 -16 10 -13 26 4 26 8 0 15 4 15 8 0 10 64 29 100 30 21 1
19 -1 -11 -14z"/>
<path d="M11536 6626 c-3 -14 -12 -26 -19 -29 -6 -2 -4 -3 7 -1 10 1 27 -6 39
-16 19 -18 19 -23 7 -59 -11 -36 -16 -39 -44 -36 -17 1 -21 0 -8 -2 17 -3 22
-11 23 -36 0 -18 3 -26 6 -19 7 18 79 16 87 -3 4 -10 20 -15 51 -15 33 0 45
-4 45 -15 0 -8 -4 -15 -10 -15 -5 0 -9 -19 -9 -42 l1 -43 11 43 c5 23 15 42
21 42 7 0 10 18 8 50 -4 45 -6 50 -28 50 -17 0 -27 8 -33 24 -5 13 -19 26 -30
29 -13 3 -21 13 -21 26 0 12 -6 21 -14 21 -8 0 -16 7 -20 15 -3 8 -15 15 -26
15 -11 0 -20 6 -20 14 0 26 -18 27 -24 2z"/>
<path d="M8380 6372 c0 -25 6 -35 25 -44 14 -6 25 -18 25 -26 0 -16 103 -122
118 -122 13 0 24 -29 16 -42 -4 -5 -15 -1 -28 10 -32 29 -55 34 -79 17 -12 -8
-29 -15 -37 -15 -40 0 -51 -23 -54 -107 -2 -80 -2 -82 26 -103 15 -11 28 -16
28 -11 0 6 -7 14 -16 19 -11 6 -14 16 -9 31 9 29 23 26 27 -6 2 -17 10 -29 21
-31 14 -3 17 4 17 40 0 50 7 64 35 69 12 3 21 14 23 29 5 33 22 51 22 22 0
-17 6 -22 26 -22 21 0 24 4 19 20 -10 31 32 26 47 -5 13 -28 33 -28 33 0 0 26
25 31 32 7 5 -22 29 -36 44 -26 5 3 9 18 9 35 0 40 16 37 24 -6 11 -57 21 -40
24 41 2 43 9 89 15 103 10 25 11 24 17 -19 3 -25 1 -52 -4 -60 -6 -8 -6 -12
-2 -8 5 5 16 -1 23 -12 8 -11 18 -18 23 -15 5 3 13 -3 19 -12 9 -15 10 -13 11
15 0 28 3 32 23 31 38 -4 113 3 93 8 -15 4 -17 11 -12 46 8 46 14 56 24 41 4
-6 15 -13 25 -17 12 -4 17 -17 17 -42 l0 -35 53 1 c62 1 124 -8 154 -23 50
-24 67 26 24 73 l-26 28 -80 -14 c-70 -12 -83 -12 -102 1 -13 8 -22 18 -21 22
1 4 -5 21 -15 38 -12 23 -26 33 -52 38 -19 4 -35 11 -35 16 0 6 -11 10 -25 10
-22 0 -25 -3 -19 -25 6 -26 -10 -36 -20 -12 -3 6 -4 4 -3 -7 2 -14 -6 -19 -38
-21 -22 -1 -48 2 -57 7 -14 7 -18 5 -18 -8 0 -12 -6 -15 -27 -11 -20 4 -37 -2
-61 -20 -26 -19 -40 -24 -65 -19 -53 10 -57 16 -44 69 5 26 7 50 3 54 -4 4
-22 7 -41 7 -19 0 -35 3 -35 7 0 4 -23 7 -51 7 -36 0 -52 -5 -56 -15 -5 -12
-9 -10 -19 8 -13 24 -13 24 -14 -9z"/>
<path d="M11638 6364 c-2 -13 -16 -16 -63 -17 -52 -1 -63 -5 -82 -28 -30 -35
-29 -37 10 -41 23 -2 33 -8 35 -23 3 -19 8 -20 50 -15 44 5 47 7 53 40 4 19 7
27 8 17 2 -38 21 -4 21 39 0 31 -4 44 -14 44 -8 0 -16 -7 -18 -16z"/>
<path d="M3201 5853 c-19 -4 -21 -7 -10 -14 12 -8 12 -10 -1 -19 -20 -13 -43
-13 -35 0 7 11 -6 13 -29 4 -23 -9 -20 -22 7 -26 19 -3 23 -11 28 -61 7 -63
19 -88 19 -39 0 41 16 49 32 15 14 -29 66 -47 118 -41 24 3 25 5 22 66 l-4 62
49 1 c39 1 43 3 23 9 -14 4 -42 8 -62 9 -21 1 -38 4 -38 9 0 11 -51 32 -74 31
-12 -1 -32 -4 -45 -6z"/>
<path d="M8650 5660 c-257 -5 -288 -7 -312 -24 -23 -15 -28 -26 -28 -57 l0
-39 43 5 c23 2 236 9 472 15 479 12 714 25 727 38 15 15 -14 52 -39 52 -12 0
-24 4 -27 9 -6 10 -326 10 -836 1z"/>
<path d="M556 5570 c6 -21 5 -23 -7 -13 -8 7 -24 11 -34 9 -15 -2 -21 -12 -23
-42 l-3 -39 100 2 c55 1 104 4 110 7 5 3 12 0 14 -6 6 -14 10 7 11 57 1 34 29
43 34 10 6 -36 24 -75 36 -75 6 1 30 5 53 9 24 5 46 4 51 -1 10 -10 62 0 62
12 0 15 -26 28 -72 35 -26 4 -45 11 -42 16 3 5 -8 9 -24 9 -17 0 -32 6 -36 15
-4 10 -15 13 -38 9 -18 -3 -59 -8 -91 -11 -31 -3 -60 -9 -63 -14 -3 -5 -14 1
-25 13 l-20 23 7 -25z"/>
</g>
</svg>
