<?xml version="1.0" encoding="iso-8859-1"?>
<!-- Generator: Adobe Illustrator 19.0.0, SVG Export Plug-In . SVG Version: 6.00 Build 0)  -->
<svg version="1.1" id="Capa_1" xmlns="http://www.w3.org/2000/svg" xmlns:xlink="http://www.w3.org/1999/xlink" x="0px" y="0px"
	 width="512px" height="512px" viewBox="0 0 512 512" style="enable-background:new 0 0 512 512;" xml:space="preserve">
<g>
	<g>
		<path d="M501.969,5.638c-5.046-4.379-11.749-6.349-18.366-5.407L160.83,46.341c-11.359,1.623-19.795,11.351-19.795,22.825v92.221
			v178.088c-13.656-7.956-29.509-12.537-46.421-12.537c-51.021,0-92.531,41.51-92.531,92.531S43.592,512,94.613,512
			s92.531-41.51,92.531-92.531V181.383l276.663-39.523v151.504c-13.656-7.956-29.509-12.537-46.421-12.537
			c-51.021,0-92.531,41.51-92.531,92.531c0,51.021,41.51,92.531,92.531,92.531s92.531-41.51,92.531-92.531V115.276V23.055
			C509.918,16.371,507.018,10.017,501.969,5.638z" fill="#456375"/>
	</g>
</g>
<g>
</g>
<g>
</g>
<g>
</g>
<g>
</g>
<g>
</g>
<g>
</g>
<g>
</g>
<g>
</g>
<g>
</g>
<g>
</g>
<g>
</g>
<g>
</g>
<g>
</g>
<g>
</g>
<g>
</g>
</svg>
